<?xml version="1.0" encoding="utf-8"?>
<!-- Generator: Adobe Illustrator 27.0.0, SVG Export Plug-In . SVG Version: 6.00 Build 0)  -->
<svg version="1.1" id="Layer_1" xmlns="http://www.w3.org/2000/svg" xmlns:xlink="http://www.w3.org/1999/xlink" x="0px" y="0px"
	 viewBox="0 0 1080 329.2" style="enable-background:new 0 0 1080 329.2;" xml:space="preserve">
<g>
	<path d="M88.9,324.2c-5.4,0-10.8-0.5-16.1-1.4c-5.4-1-10.8-2.4-16-4.2c-5.5-1.9-10.5-4.2-15.3-7.1l-0.1-0.1c-5-3-9.3-6.3-13-10
		c-4-4-7.2-8.4-9.5-13.1c-2.5-5.1-3.8-10.8-3.8-16.9c0-3.4,0.5-6.5,1.5-9.4c2.1-6.3,7.5-10.1,14.4-10.1h1.7l1.6,0.5
		c4,1.4,8.1,3.1,13.5,5.5c3.9,1.7,8.1,3.5,13.1,5.5c4.8,1.8,9.1,3.1,13.3,4.1l0.2,0c4.2,1,8.8,1.6,13.9,1.6c6.1,0,12.2-0.7,18.1-2.2
		l0.1,0c5.9-1.3,12-3.5,18.2-6.4c6.1-2.9,11.8-6.4,17.1-10.4c5.4-4,10.3-8.6,15.1-14.1l0.1-0.1c5.3-5.9,9.7-11.4,13.2-16.3
		c3.2-4.3,5.9-8.5,8.5-12.8c2-3.7,3.4-6.5,4.1-8.6c0.8-2.5,1-3.8,1-4.3c0-0.6-0.2-1-0.6-1.4c-1-1.1-2.7-2.2-5.1-3.3
		c-2.8-1.2-5.9-2-9.5-2.5c-3.8-0.6-7.8-0.9-12.4-0.9c-2.6,0-5.8,0.1-9.5,0.3c-3.8,0.2-7.7,0.4-11.6,0.6c-1.9,0.1-3.8,0.2-5.7,0.2
		c-1.9,0.1-3.8,0.1-5.7,0.2l-2,0.1c-3,0.1-5.7,0.2-8.1,0.2c-4.6,0-9.4-0.5-14.6-1.6c-4.9-1-9.8-2.7-15.1-5.3
		c-5.1-2.5-9.7-5.9-14.2-10.3c-4.4-4.3-8-9.7-11-16.3c-1-2.3-1.7-4.6-2.5-7.3l-0.1-0.2l0-0.2c-0.8-3.1-1.2-6.4-1.2-9.9
		c0-3.7,0.3-7,0.8-10c0.5-3,1.1-5.9,1.7-8.3l0-0.2l0.1-0.2c2-7.1,5.3-14.3,9.7-21.3c4.3-6.8,9.3-13.3,15.4-20
		C88.6,70,94.8,64,102,57.9c6.7-5.8,13.6-11.2,21-16.5c6.9-5,14-9.6,21-13.9c7.6-4.5,13.8-7.9,19.6-10.7c8.6-4.1,17.7-7.3,27-9.3
		l0.1,0c9-1.9,18.1-2.8,27-2.8c5.7,0,11.3,0.8,16.7,2.3c5.5,1.6,10.5,4,14.8,7.2c4.5,3.3,8.2,7.4,10.9,12.3c2.7,5,4.1,10.8,4.1,17.1
		c0,3.7-0.4,6.9-1.3,9.8c-1,3.2-2.4,5.8-4.4,8c-1.9,2.3-4.2,3.9-6.8,5c-2.5,1-4.9,1.5-7.4,1.5c-4,0-7.8-0.5-11.5-1.4l-0.3-0.1
		c-2.8-0.8-5.7-1.6-8.5-2.6c-2.8-1-5.2-1.8-7.4-2.4c-1.6-0.5-3.5-0.7-5.6-0.7c-7.8,0-15.9,1.6-24.2,4.8c-8.9,3.4-17.6,7.8-25.7,13
		c-8.4,5.2-16.5,11.3-24.2,17.9c-7.7,6.6-14.6,13.2-20.6,19.5c-2.6,2.7-4.4,5.2-5.5,7.6l0,0.1c-1.2,2.6-1.5,4.6-1.5,5.7
		c0,1.2,0.2,1.7,1.4,2.5c2.4,1.5,5.4,2.3,9,2.3c2.8,0,6-0.1,9.6-0.2l1.4,0c3.7-0.1,7.5-0.3,11.5-0.4l1.1-0.1
		c4.4-0.2,8.6-0.4,12.7-0.6c4.2-0.2,8.1-0.3,11.4-0.3c8.6,0,16.9,1.2,24.8,3.7c8.2,2.5,15.3,6.1,21.8,11.1
		c6.6,5.2,11.9,11.5,15.7,18.7c4,7.7,6,16.4,6,25.8c0,5.7-0.9,11.6-2.6,17.7c-1.5,5.3-3.7,10.8-6.7,16.8c-2.6,5.2-5.8,10.7-9.5,16.3
		c-3.4,5.2-7.1,10.3-11,15.2c-6.8,8.8-14.6,17.4-23.2,25.5c-8.7,8.1-18,15.2-27.6,21.1c-9.8,6-20.3,10.9-31.3,14.5
		C112.3,322.4,100.7,324.2,88.9,324.2z"/>
	<path d="M387.5,324.5c-10.7,0-18.2-2.8-23.1-8.4c-4.3-5.1-6.5-11.8-6.5-20c0-3.5,0.3-7.4,1-11.5c0.7-4.3,1.6-8.2,2.7-12.1
		c2.1-7.7,4-14,5.9-19.9c2.1-6.3,4.2-12.8,6.3-19.2l0.1-0.3c1.7-5.2,3.4-10.6,5-15.8l1.2-3.8c1.5-4.8,2.8-9.6,4-13.9
		c-2.7,1-4.4,1.9-5.3,2.5c-7.8,5.3-14.8,10.6-20.7,15.7c-5.7,4.9-11.1,10.3-16.1,16c-5,5.8-9.7,11.8-14,18
		c-5.4,7.9-9.9,14.7-14,21.3c-4.2,7.8-7.1,14-8.9,18.8c-2,5.5-4.1,10.4-6.2,14.6l-0.1,0.1c-2.5,4.9-5.6,8.6-9.1,11
		c-3.9,2.7-9,4-15.5,4c-10.2,0-15.6-4.5-18.4-8.2c-3.2-4.5-4.9-10.1-4.9-16.8c0-4.2,0.6-8.9,1.9-14.3l60.8-243.8
		c0.6-2.2,1.4-4.4,2.6-6.6c1.3-2.7,3.1-5.1,5.3-7.3c2.3-2.3,5-4.2,8-5.6c3.4-1.6,7.1-2.4,11.1-2.4c2.3,0,4.7,0.1,7.1,0.3
		c2.6,0.2,5.1,0.7,7.7,1.4l0.2,0.1l0.2,0.1c3.2,1.1,6,2.7,8.2,5l0.1,0.1l0.1,0.1c2.8,3.1,4.4,7,4.4,11.4c0,1.2-0.2,2.8-0.6,4.8
		l-0.2,0.8c-0.3,1.4-0.6,3.1-1,5c-5.9,23.6-12.6,50.1-21.3,83.4c-4.3,16.7-8.8,33.8-13.2,50.3c7.7-7,15.5-13.2,23.9-18.6
		c9-5.9,18.6-10.6,28.7-14c10.2-3.5,20.8-5.2,31.7-5.2c11.5,0,18.3,5.1,22,9.4c5,5.8,7.5,13.1,7.5,21.6c0,3.5-0.4,7-1.4,10.7
		c-1.5,5.9-3.3,11.8-5.2,17.5c-1.8,5.4-3.7,11-5.8,16.7c-1.9,5.4-3.9,11-5.8,16.7c-2,5.9-3.6,11.4-4.9,16.8
		c-1.9,7.3-3.2,14.3-3.9,20.7c-0.8,6.7-1.2,12.1-1.4,16.1l0,0.2l0,0.2c-0.4,4.6-1,8.4-2,12.1c-1.1,4.3-2.9,8.2-5.1,11.6
		c-2.6,3.9-5.8,7-9.5,9.2l-0.1,0.1C397.1,323.4,392.5,324.5,387.5,324.5z"/>
	<path d="M574.5,316.8c-4.3,0-8.1-0.3-11.2-1c-3.7-0.8-6.6-2-9-3.8c-2.9-2.1-5-4.9-6-8.3l-0.3-1l-0.1-1.1c0-0.3,0-0.6-0.1-0.9
		c-0.1-1.2-0.2-2.6-0.2-4.4c0-3,0.2-6.2,0.7-9.7c-3.3,2.6-7,5.4-11.6,8.5c-5.8,4.1-11.5,7.5-17.1,10.1c-6.5,3.2-12.8,4.8-18.9,4.8
		c-4.6,0-9.2-0.7-13.6-2.1c-4.4-1.4-8.3-3.5-11.6-6c-7.5-5.9-13.1-12.1-16.5-18.3c-3.7-6.6-5.5-14-5.5-22.8c0-3.3,0.3-6.9,0.9-11
		l0-0.3c0.7-4,1.6-8,2.6-12.1c4.9-20.4,13.5-39.7,25.5-57.1c12-17.5,27.1-32.5,44.8-44.8c7.5-5.3,15.1-8.6,23.1-10.3l0.1,0
		c7.3-1.4,14.4-2.1,21.2-2.1c3.2,0,6.6,0.2,10.6,0.6c1.5,0.2,2.9,0.3,4.3,0.5c1.3,0.1,2.5,0.3,3.6,0.4c2.3-0.5,4.3-0.9,6.1-1.1
		c2.1-0.3,4.3-0.5,7-0.5c5,0,9.2,0.7,12.8,2.2c3.8,1.5,7,3.8,9.6,6.6c2.3,2.7,4.1,5.8,5.2,9.3c1,3,1.4,6.3,1.4,9.7
		c0,4.3-0.7,8.4-2,12.2c-0.3,1-0.6,1.9-1,2.9c-0.6,1.8-1.2,3.6-1.8,5.4l-24.1,96.1c-0.3,2.9-0.5,5.7-0.7,8.3
		c-0.2,1.9-0.3,3.7-0.5,5.5c-0.5,5.4-1.3,10.1-2.6,14.3l-0.1,0.2l-0.1,0.2c-0.2,0.4-0.3,0.9-0.5,1.4c-0.3,0.8-0.5,1.7-0.9,2.6
		c-0.9,2.6-2.2,5-4,7.4l-0.1,0.2l-0.1,0.1c-1.9,2.4-4.2,4.4-7,6.1C583.6,315.8,579.5,316.8,574.5,316.8z M575.1,169
		c-3.3,0.4-6.7,1.3-10.1,2.6c-5.3,2.1-10.6,4.9-15.6,8.3c-4.9,3.4-9.8,7.6-14.6,12.6c-5,5.3-9.2,10.5-12.8,15.8l-0.1,0.1
		c-3.9,5.7-7.3,11.5-9.9,17.2c-2.9,6.5-5,12.2-6.4,17.4l-0.1,0.2c-0.4,1.5-0.9,4-1.4,6.5c-0.4,2.3-0.6,4.8-0.6,7.8
		c0,1.1,0.1,2.2,0.2,3.1c2.8-0.2,5.4-1,8-2.3c3.8-1.9,7.4-4.3,10.8-7c5.3-4.3,10.5-8.9,15.5-13.9c5.7-5.5,10.4-10.8,14.7-16l0.1-0.1
		c4.5-5.4,8.6-11.1,12-16.9c3.2-5.4,5.7-10.8,7.2-16.3c0.9-3.3,1.7-7.1,2.1-10.9l0-0.2C574.7,174.2,575,171.5,575.1,169z"/>
	<path d="M778.1,324.5c-10.7,0-18.2-2.8-23.1-8.4c-4.3-5.1-6.5-11.8-6.5-20c0-3.5,0.3-7.4,1-11.5c0.7-4.3,1.6-8.2,2.7-12.1
		c2.1-7.7,4-14.1,5.9-19.9c2.1-6.2,4.2-12.6,6.2-18.9l0.2-0.6c1.7-5.2,3.4-10.6,5-15.7l1.2-3.9c1.5-4.8,2.8-9.6,4-13.9
		c-2.7,1-4.4,1.9-5.3,2.5c-7.8,5.3-14.8,10.6-20.7,15.7c-5.7,4.9-11.1,10.3-16.1,16c-4.7,5.4-9.4,11.4-14,18
		c-5.4,7.9-9.9,14.7-14,21.3c-4.2,7.8-7.1,14-8.9,18.8c-2,5.5-4.1,10.4-6.2,14.6l-0.1,0.1c-2.5,4.9-5.6,8.6-9.1,11
		c-3.9,2.7-9,4-15.5,4c-10.2,0-15.6-4.5-18.4-8.2c-3.2-4.5-4.9-10.1-4.9-16.8c0-4.2,0.6-8.9,1.9-14.3l60.9-243.9
		c0.6-2.2,1.4-4.4,2.6-6.6c1.3-2.7,3.1-5.1,5.3-7.3c2.3-2.3,5-4.2,8-5.6c3.4-1.6,7.1-2.4,11.1-2.4c2.3,0,4.7,0.1,7.1,0.3
		c2.6,0.2,5.1,0.7,7.7,1.4l0.2,0.1l0.2,0.1c3.2,1.1,6,2.7,8.2,5l0.1,0.1l0.1,0.1c2.8,3.1,4.3,7,4.3,11.4c0,1.2-0.2,2.8-0.6,4.8
		l-0.2,0.8c-0.3,1.4-0.6,3.1-1,5c-5.8,23.4-12.6,49.9-21.3,83.4c-4.3,16.7-8.8,33.8-13.2,50.3c7.7-7,15.5-13.2,23.9-18.6
		c9-5.9,18.6-10.6,28.7-14c10.2-3.5,20.8-5.2,31.7-5.2c11.5,0,18.3,5.1,22,9.4c5,5.8,7.5,13.1,7.5,21.6c0,3.5-0.4,7-1.4,10.7
		c-1.5,5.9-3.3,11.8-5.2,17.5l-0.1,0.2c-1.8,5.3-3.7,10.9-5.6,16.4c-1.9,5.5-3.9,11.1-5.8,16.8c-2,5.9-3.6,11.4-4.9,16.8
		c-1.9,7.3-3.2,14.3-3.9,20.7c-0.8,6.7-1.2,12.1-1.4,16.1l0,0.2l0,0.2c-0.4,4.6-1,8.4-2,12.1c-1.1,4.3-2.9,8.2-5.1,11.6
		c-2.6,3.9-5.8,7-9.5,9.2C787.9,323.3,783.2,324.5,778.1,324.5z"/>
	<path d="M897.9,314.8c-6.8,0-13.3-1.1-19.4-3.3c-6.5-2.3-12.3-5.9-17.3-10.5c-5.2-4.8-9.3-10.8-12.2-17.9c-3-7.1-4.5-15.3-4.5-24.3
		c0-2.9,0.2-5.9,0.5-9.3c0.2-3.2,0.9-6.8,1.9-10.8c1.6-6.8,3.9-14,6.8-21.2c2.7-6.9,6.2-13.8,10.6-21.1c4.1-6.9,9.2-13.8,15-20.5
		c5.8-6.6,12.6-13,20.2-19c5.1-4.1,10.6-8,16.3-11.7c5.9-3.8,11.9-7.1,18-9.8c6.2-2.8,12.3-5,18.5-6.7c6.4-1.8,13-2.7,19.5-2.7
		c4.9,0,9.1,0.4,12.8,1.2c0.1,0,0.2,0,0.3,0.1c0.4-1.3,0.8-2.8,1.2-4.3c1.6-5.5,3.5-12.4,5.9-20.7c5.3-18.5,11.9-44.8,19.5-78.1
		l0.2-0.8l0.3-0.7c2-4.8,4.7-8.6,8.3-11.8c4.2-3.9,9.4-5.8,15.4-5.8c3.2,0,6.3,0.3,9,0.9c3.6,0.6,6.9,2,10,4.1
		c3.3,2.2,5.9,5.3,7.7,9.1c1.8,3.7,2.6,7.9,2.6,12.9v1.2l-37.3,149.2c-1.1,4.2-2.1,9.5-2.9,15.9c-0.8,5.9-1.9,13.7-2.7,22l0,0.1
		c-0.9,7.9-1.5,15.4-2,22.9c-0.5,8.2-0.8,14.3-0.8,19.2c0,7.8-0.9,15.4-2.7,22.8l0,0.2c-0.8,3.1-1.6,6-2.8,8.7
		c-1.3,3.3-3.2,6.2-5.6,8.4c-2.7,2.5-5.8,4.2-9.2,5c-2.8,0.8-5.9,1.1-10.1,1.1c-4.6,0-8.5-0.5-11.5-1.6l-0.2-0.1l-0.2-0.1
		c-3.7-1.5-6.5-3.5-8.5-6.1c-2.1-2.7-3.3-5.8-3.7-9.2c-0.1-0.6-0.1-1.2-0.2-1.8c-0.4,0.2-0.8,0.5-1.1,0.7c-2.3,1.5-4.8,3-7.5,4.7
		l-0.2,0.1c-0.9,0.5-1.7,1-2.4,1.4c-1.3,0.8-2.3,1.3-3,1.7c-3,1.6-6.3,3.4-9.9,5.2c-3.6,1.8-7.8,3.6-12.4,5.4
		c-4.5,1.7-9.4,3.2-14.3,4.2C908.4,314.2,903.3,314.8,897.9,314.8z M902.2,265.4c0.9,0.4,2.8,1.1,6.3,1.1c1.6,0,3.2-0.3,5-0.8
		c2.5-0.8,4.9-1.7,7.2-2.8c2.6-1.2,4.8-2.4,6.7-3.5l0.2-0.1l0.2-0.1c2.1-1.2,3.9-2.3,5.3-3.3l0.2-0.1l0.2-0.1
		c4-2.6,7.9-5.3,12.5-8.7c3.5-2.5,6.6-5.3,9.3-8.3l0.1-0.1c2.5-2.6,4.8-5.8,7.1-9.7c1.9-3.3,3.5-7.3,4.8-12.2
		c1.2-4.7,2.3-9.1,3.1-13l0.5-2.2c0.7-3.3,1.4-6.3,1.9-9.3l0-0.2c0.5-2.7,1-5.5,1.5-8.5c0.2-1,0.3-2,0.5-3c0,0,0.6-4.4,0.7-5.2
		c-3.1,0.3-6.5,0.9-9.9,1.9c-5.4,1.5-10.9,3.7-16.5,6.5l-0.1,0.1c-5.4,2.6-10.9,6-16.7,10.3c-5.5,4-10.6,8.6-15.2,13.6
		c-4.7,5-8.7,10.5-12,16.1c-3.2,5.8-5.6,11.9-7.1,18.2l0,0.2c-0.8,2.9-1.1,5.6-1.1,8.2c0,3,0.2,5.7,0.7,8.3c0.3,1.7,0.9,3.1,1.8,4.4
		C899.8,263.8,900.8,264.7,902.2,265.4z"/>
</g>
</svg>
